<?xml version="1.0" standalone="no"?>
<!DOCTYPE svg PUBLIC "-//W3C//DTD SVG 20010904//EN"
 "http://www.w3.org/TR/2001/REC-SVG-20010904/DTD/svg10.dtd">
<svg version="1.0" xmlns="http://www.w3.org/2000/svg"
 width="350.000000pt" height="350.000000pt" viewBox="0 0 350.000000 350.000000"
 preserveAspectRatio="xMidYMid meet">
<metadata>
Created by potrace 1.11, written by Peter Selinger 2001-2013
</metadata>
<g transform="translate(0.000000,350.000000) scale(0.100000,-0.100000)"
fill="#000000" stroke="none">
<path d="M1156 3493 c-3 -3 -43 -7 -88 -9 -210 -9 -365 -18 -503 -30 -33 -2
-89 -7 -123 -9 -35 -2 -69 -8 -75 -14 -9 -7 -11 -223 -10 -843 2 -867 3 -902
29 -1033 8 -44 17 -93 19 -110 2 -16 8 -31 14 -33 5 -2 8 -9 5 -16 -6 -14 49
-179 90 -271 33 -73 78 -166 88 -180 4 -5 36 -53 71 -106 66 -99 82 -120 130
-166 15 -14 27 -32 27 -40 0 -7 4 -13 9 -13 5 0 30 -23 57 -51 27 -29 58 -60
69 -70 50 -45 81 -69 88 -69 5 0 5 -4 2 -10 -3 -5 0 -10 7 -10 8 0 20 -9 28
-20 8 -11 20 -20 27 -20 7 0 13 -4 13 -8 0 -5 11 -15 25 -22 13 -7 21 -18 18
-24 -4 -6 1 -5 10 3 10 8 20 11 24 7 3 -3 1 -6 -6 -6 -6 0 -2 -10 11 -23 29
-28 143 -107 157 -107 5 0 11 -4 13 -9 3 -7 154 -94 168 -97 3 0 25 -10 50
-21 41 -18 83 -34 103 -39 4 -1 8 -3 10 -4 7 -7 67 -6 67 2 0 5 4 7 8 4 4 -2
27 4 51 15 24 10 49 19 56 19 7 0 15 3 17 8 2 4 47 29 101 56 53 27 97 52 97
57 0 5 7 9 15 9 8 0 15 3 15 8 0 4 14 13 30 20 17 8 36 19 43 25 7 7 55 44
107 84 95 72 133 104 245 212 114 110 281 311 258 311 -4 0 -3 4 3 8 26 18
161 262 168 306 1 6 9 27 18 46 24 53 38 101 32 111 -3 5 -1 9 4 9 11 0 43
120 36 132 -3 4 -1 8 5 8 5 0 9 8 9 18 0 9 3 33 6 52 13 61 17 93 22 155 8 86
10 1725 3 1737 -3 5 -9 9 -13 9 -3 -1 -7 -1 -8 0 -2 0 -32 3 -68 5 -100 7
-145 11 -145 13 0 1 -38 4 -85 6 -113 5 -290 16 -370 22 -97 7 -1277 13 -1284
6z"/>
</g>
</svg>
